{"accessors" : [{"bufferView" : 0, "byteOffset" : 0, "componentType" : 5123, "count" : 1716, "type" : "SCALAR", "max" : [1715], "min" : [0]}, {"bufferView" : 1, "byteOffset" : 0, "componentType" : 5126, "count" : 1716, "type" : "VEC3", "max" : [90.12950134277344, 0.8600826859474182, 104.8373031616211], "min" : [-1.2153090238571167, -1.5021220445632935, -4.996004140208796E-16]}, {"bufferView" : 1, "byteOffset" : 12, "componentType" : 5126, "count" : 1716, "type" : "VEC3", "max" : [0.9303399920463562, 1.0000044107437134, 1.0000044107437134], "min" : [-0.9303399920463562, -1.0000044107437134, -1.0000044107437134]}, {"bufferView" : 0, "byteOffset" : 3432, "componentType" : 5123, "count" : 48, "type" : "SCALAR", "max" : [47], "min" : [0]}, {"bufferView" : 2, "byteOffset" : 0, "componentType" : 5126, "count" : 48, "type" : "VEC3", "max" : [40.118560791015625, 0.8600826859474182, 102.7426986694336], "min" : [7.419638156890869, -1.5021220445632935, 65.51447296142578]}, {"bufferView" : 2, "byteOffset" : 12, "componentType" : 5126, "count" : 48, "type" : "VEC3", "max" : [0.9348127245903015, 4.16335407709667E-16, 1.0000044107437134], "min" : [-0.9348127245903015, -4.16335407709667E-16, -1.0000044107437134]}, {"bufferView" : 0, "byteOffset" : 3528, "componentType" : 5123, "count" : 60, "type" : "SCALAR", "max" : [59], "min" : [0]}, {"bufferView" : 3, "byteOffset" : 0, "componentType" : 5126, "count" : 60, "type" : "VEC3", "max" : [61.82350158691406, 0.8600826859474182, 102.7426986694336], "min" : [27.925859451293945, -1.5021220445632935, 68.45099639892578]}, {"bufferView" : 3, "byteOffset" : 12, "componentType" : 5126, "count" : 60, "type" : "VEC3", "max" : [0.9348127245903015, 4.16335407709667E-16, 1.0000044107437134], "min" : [-0.9348127245903015, -4.16335407709667E-16, -1.0000044107437134]}, {"bufferView" : 0, "byteOffset" : 3648, "componentType" : 5123, "count" : 48, "type" : "SCALAR", "max" : [47], "min" : [0]}, {"bufferView" : 4, "byteOffset" : 0, "componentType" : 5126, "count" : 48, "type" : "VEC3", "max" : [82.2972412109375, 0.8600826859474182, 102.63459777832031], "min" : [49.89796829223633, -1.5021220445632935, 66.42980194091797]}, {"bufferView" : 4, "byteOffset" : 12, "componentType" : 5126, "count" : 48, "type" : "VEC3", "max" : [0.9242280721664429, 4.16335407709667E-16, 1.0000044107437134], "min" : [-0.9242280721664429, -4.16335407709667E-16, -1.0000044107437134]}, {"bufferView" : 0, "byteOffset" : 3744, "componentType" : 5123, "count" : 48, "type" : "SCALAR", "max" : [47], "min" : [0]}, {"bufferView" : 5, "byteOffset" : 0, "componentType" : 5126, "count" : 48, "type" : "VEC3", "max" : [39.68415832519531, 0.8600826859474182, 72.12158203125], "min" : [19.558799743652344, -1.5021220445632935, 55.919578552246094]}, {"bufferView" : 5, "byteOffset" : 12, "componentType" : 5126, "count" : 48, "type" : "VEC3", "max" : [0.9294294714927673, 3.3306836322542506E-16, 0.9294294714927673], "min" : [-0.9294294714927673, -3.3306836322542506E-16, -0.9294294714927673]}, {"bufferView" : 0, "byteOffset" : 3840, "componentType" : 5123, "count" : 60, "type" : "SCALAR", "max" : [59], "min" : [0]}, {"bufferView" : 6, "byteOffset" : 0, "componentType" : 5126, "count" : 60, "type" : "VEC3", "max" : [47.10285186767578, 0.8600826859474182, 70.64199829101562], "min" : [42.03583908081055, -1.5021220445632935, 63.8043098449707]}, {"bufferView" : 6, "byteOffset" : 12, "componentType" : 5126, "count" : 60, "type" : "VEC3", "max" : [1.0000044107437134, 2.498012922714035E-16, 0.9368258714675903], "min" : [-1.0000044107437134, -2.498012922714035E-16, -0.9368258714675903]}, {"bufferView" : 0, "byteOffset" : 3960, "componentType" : 5123, "count" : 48, "type" : "SCALAR", "max" : [47], "min" : [0]}, {"bufferView" : 7, "byteOffset" : 0, "componentType" : 5126, "count" : 48, "type" : "VEC3", "max" : [69.77973175048828, 0.8600826859474182, 71.86428833007812], "min" : [50.13570022583008, -1.5021220445632935, 56.35776138305664]}, {"bufferView" : 7, "byteOffset" : 12, "componentType" : 5126, "count" : 48, "type" : "VEC3", "max" : [0.9240010976791382, 1.1102279215343829E-16, 0.9298157691955566], "min" : [-0.9240010976791382, -1.1102279215343829E-16, -0.9298157691955566]}, {"bufferView" : 0, "byteOffset" : 4056, "componentType" : 5123, "count" : 48, "type" : "SCALAR", "max" : [47], "min" : [0]}, {"bufferView" : 8, "byteOffset" : 0, "componentType" : 5126, "count" : 48, "type" : "VEC3", "max" : [30.115140914916992, 0.8600826859474182, 53.29384994506836], "min" : [2.3809139728546143, -1.5021220445632935, 23.830699920654297]}, {"bufferView" : 8, "byteOffset" : 12, "componentType" : 5126, "count" : 48, "type" : "VEC3", "max" : [0.9249464273452759, 2.2204558430687657E-16, 0.9249464273452759], "min" : [-0.9249464273452759, -2.2204558430687657E-16, -0.9249464273452759]}, {"bufferView" : 0, "byteOffset" : 4152, "componentType" : 5123, "count" : 36, "type" : "SCALAR", "max" : [35], "min" : [0]}, {"bufferView" : 9, "byteOffset" : 0, "componentType" : 5126, "count" : 36, "type" : "VEC3", "max" : [37.71009063720703, 0.8600826859474182, 58.237159729003906], "min" : [27.2474308013916, -1.5021220445632935, 44.02748107910156]}, {"bufferView" : 9, "byteOffset" : 12, "componentType" : 5126, "count" : 36, "type" : "VEC3", "max" : [0.9195597767829895, 1.2490064613570175E-16, 0.9195597767829895], "min" : [-0.9195597767829895, -1.2490064613570175E-16, -0.9195597767829895]}, {"bufferView" : 0, "byteOffset" : 4224, "componentType" : 5123, "count" : 60, "type" : "SCALAR", "max" : [59], "min" : [0]}, {"bufferView" : 10, "byteOffset" : 0, "componentType" : 5126, "count" : 60, "type" : "VEC3", "max" : [43.75883865356445, 0.8600826859474182, 60.186180114746094], "min" : [31.999570846557617, -1.5021220445632935, 35.269649505615234]}, {"bufferView" : 10, "byteOffset" : 12, "componentType" : 5126, "count" : 60, "type" : "VEC3", "max" : [0.9440190196037292, 4.16335407709667E-16, 1.0000044107437134], "min" : [-0.9440190196037292, -4.16335407709667E-16, -1.0000044107437134]}, {"bufferView" : 0, "byteOffset" : 4344, "componentType" : 5123, "count" : 60, "type" : "SCALAR", "max" : [59], "min" : [0]}, {"bufferView" : 11, "byteOffset" : 0, "componentType" : 5126, "count" : 60, "type" : "VEC3", "max" : [56.960411071777344, 0.8600826859474182, 60.02696990966797], "min" : [45.68505096435547, -1.5021220445632935, 35.862220764160156]}, {"bufferView" : 11, "byteOffset" : 12, "componentType" : 5126, "count" : 60, "type" : "VEC3", "max" : [0.9239292144775391, 4.16335407709667E-16, 1.0000044107437134], "min" : [-0.9239292144775391, -4.16335407709667E-16, -1.0000044107437134]}, {"bufferView" : 0, "byteOffset" : 4464, "componentType" : 5123, "count" : 36, "type" : "SCALAR", "max" : [35], "min" : [0]}, {"bufferView" : 12, "byteOffset" : 0, "componentType" : 5126, "count" : 36, "type" : "VEC3", "max" : [62.334808349609375, 0.8600826859474182, 58.05738067626953], "min" : [52.51306915283203, -1.5021220445632935, 44.453128814697266]}, {"bufferView" : 12, "byteOffset" : 12, "componentType" : 5126, "count" : 36, "type" : "VEC3", "max" : [0.9239292144775391, 3.885798056242585E-16, 0.9343568682670593], "min" : [-0.9239292144775391, -3.885798056242585E-16, -0.9343568682670593]}, {"bufferView" : 0, "byteOffset" : 4536, "componentType" : 5123, "count" : 60, "type" : "SCALAR", "max" : [59], "min" : [0]}, {"bufferView" : 13, "byteOffset" : 0, "componentType" : 5126, "count" : 60, "type" : "VEC3", "max" : [86.59278106689453, 0.8600826859474182, 52.974708557128906], "min" : [59.43077087402344, -1.5021220445632935, 23.99843978881836]}, {"bufferView" : 13, "byteOffset" : 12, "componentType" : 5126, "count" : 60, "type" : "VEC3", "max" : [0.931390643119812, 4.16335407709667E-16, 1.0000044107437134], "min" : [-0.931390643119812, -4.16335407709667E-16, -1.0000044107437134]}, {"bufferView" : 0, "byteOffset" : 4656, "componentType" : 5123, "count" : 36, "type" : "SCALAR", "max" : [35], "min" : [0]}, {"bufferView" : 14, "byteOffset" : 0, "componentType" : 5126, "count" : 36, "type" : "VEC3", "max" : [40.302391052246094, 0.8600826859474182, 19.596010208129883], "min" : [16.017120361328125, -1.5021220445632935, 2.969655990600586]}, {"bufferView" : 14, "byteOffset" : 12, "componentType" : 5126, "count" : 36, "type" : "VEC3", "max" : [0.9160764813423157, 3.0531262879111853E-16, 0.9999585747718811], "min" : [-0.9160764813423157, -3.0531262879111853E-16, -0.9999585747718811]}, {"bufferView" : 0, "byteOffset" : 4728, "componentType" : 5123, "count" : 36, "type" : "SCALAR", "max" : [35], "min" : [0]}, {"bufferView" : 15, "byteOffset" : 0, "componentType" : 5126, "count" : 36, "type" : "VEC3", "max" : [72.5223388671875, 0.8600826859474182, 19.170740127563477], "min" : [48.41141891479492, -1.5021220445632935, 2.969655990600586]}, {"bufferView" : 15, "byteOffset" : 12, "componentType" : 5126, "count" : 36, "type" : "VEC3", "max" : [0.9171419739723206, 4.99602584542807E-16, 0.9999381303787231], "min" : [-0.9171419739723206, -4.99602584542807E-16, -0.9999381303787231]}, {"bufferView" : 0, "byteOffset" : 4800, "componentType" : 5123, "count" : 48, "type" : "SCALAR", "max" : [47], "min" : [0]}, {"bufferView" : 16, "byteOffset" : 0, "componentType" : 5126, "count" : 48, "type" : "VEC3", "max" : [64.38150024414062, 0.8600826859474182, 38.41619873046875], "min" : [45.77214050292969, -1.5021220445632935, 5.286158084869385]}, {"bufferView" : 16, "byteOffset" : 12, "componentType" : 5126, "count" : 48, "type" : "VEC3", "max" : [0.9350037574768066, 1.1102279215343829E-16, 0.7020164728164673], "min" : [-0.9350037574768066, -1.1102279215343829E-16, -0.7020164728164673]}, {"bufferView" : 0, "byteOffset" : 4896, "componentType" : 5123, "count" : 48, "type" : "SCALAR", "max" : [47], "min" : [0]}, {"bufferView" : 17, "byteOffset" : 0, "componentType" : 5126, "count" : 48, "type" : "VEC3", "max" : [42.94321823120117, 0.8600826859474182, 38.35823059082031], "min" : [24.19529914855957, -1.5021220445632935, 5.313957214355469]}, {"bufferView" : 17, "byteOffset" : 12, "componentType" : 5126, "count" : 48, "type" : "VEC3", "max" : [0.9261898398399353, 2.2204558430687657E-16, 0.7132748961448669], "min" : [-0.9261898398399353, -2.2204558430687657E-16, -0.7132748961448669]}, {"bufferView" : 0, "byteOffset" : 4992, "componentType" : 5123, "count" : 48, "type" : "SCALAR", "max" : [47], "min" : [0]}, {"bufferView" : 18, "byteOffset" : 0, "componentType" : 5126, "count" : 48, "type" : "VEC3", "max" : [53.27505874633789, 0.8600826859474182, 54.838050842285156], "min" : [35.31549072265625, -1.5021220445632935, 11.415369987487793]}, {"bufferView" : 18, "byteOffset" : 12, "componentType" : 5126, "count" : 48, "type" : "VEC3", "max" : [0.9297221899032593, 1.8041199589030659E-16, 0.4032912850379944], "min" : [-0.9297221899032593, -1.8041199589030659E-16, -0.4032912850379944]}, {"bufferView" : 0, "byteOffset" : 5088, "componentType" : 5123, "count" : 36, "type" : "SCALAR", "max" : [35], "min" : [0]}, {"bufferView" : 19, "byteOffset" : 0, "componentType" : 5126, "count" : 36, "type" : "VEC3", "max" : [46.441139221191406, 0.8600826859474182, 7.89596700668335], "min" : [42.56562042236328, -1.5021220445632935, 3.2039999961853027]}, {"bufferView" : 19, "byteOffset" : 12, "componentType" : 5126, "count" : 36, "type" : "VEC3", "max" : [0.9297221899032593, 5.551139607671914E-17, 0.9998422861099243], "min" : [-0.9297221899032593, -5.551139607671914E-17, -0.9998422861099243]}, {"bufferView" : 0, "byteOffset" : 5160, "componentType" : 5123, "count" : 36, "type" : "SCALAR", "max" : [35], "min" : [0]}, {"bufferView" : 20, "byteOffset" : 0, "componentType" : 5126, "count" : 36, "type" : "VEC3", "max" : [41.722679138183594, 0.8600826859474182, 63.30516052246094], "min" : [40.31153869628906, -1.5021220445632935, 61.30101013183594]}, {"bufferView" : 20, "byteOffset" : 12, "componentType" : 5126, "count" : 36, "type" : "VEC3", "max" : [0.9604848027229309, 9.714493155372992E-17, 0.9999996423721313], "min" : [-0.9604848027229309, -9.714493155372992E-17, -0.9999996423721313]}, {"bufferView" : 0, "byteOffset" : 5232, "componentType" : 5123, "count" : 36, "type" : "SCALAR", "max" : [35], "min" : [0]}, {"bufferView" : 21, "byteOffset" : 0, "componentType" : 5126, "count" : 36, "type" : "VEC3", "max" : [48.417320251464844, 0.8600826859474182, 63.01839065551758], "min" : [47.195369720458984, -1.5021220445632935, 61.29262161254883]}, {"bufferView" : 21, "byteOffset" : 12, "componentType" : 5126, "count" : 36, "type" : "VEC3", "max" : [0.9669240713119507, 1.6653422131738193E-16, 0.9999502301216125], "min" : [-0.9669240713119507, -1.6653422131738193E-16, -0.9999502301216125]}, {"bufferView" : 0, "byteOffset" : 5304, "componentType" : 5123, "count" : 36, "type" : "SCALAR", "max" : [35], "min" : [0]}, {"bufferView" : 22, "byteOffset" : 0, "componentType" : 5126, "count" : 36, "type" : "VEC3", "max" : [45.689369201660156, 0.8600826859474182, 61.30533981323242], "min" : [43.24842834472656, -1.5021220445632935, 58.751670837402344]}, {"bufferView" : 22, "byteOffset" : 12, "componentType" : 5126, "count" : 36, "type" : "VEC3", "max" : [0.9266222715377808, 4.16335407709667E-16, 1.0000044107437134], "min" : [-0.9266222715377808, -4.16335407709667E-16, -1.0000044107437134]}], "asset" : {"generator" : "Aspose.3D 20.9.1", "version" : "2.0"}, "buffers" : [{"uri" : "buffer.bin", "byteLength" : 69980}], "bufferViews" : [{"buffer" : 0, "byteOffset" : 0, "byteLength" : 5376, "target" : 34963}, {"buffer" : 0, "byteOffset" : 5380, "byteLength" : 41184, "byteStride" : 24, "target" : 34962}, {"buffer" : 0, "byteOffset" : 46568, "byteLength" : 1152, "byteStride" : 24, "target" : 34962}, {"buffer" : 0, "byteOffset" : 47724, "byteLength" : 1440, "byteStride" : 24, "target" : 34962}, {"buffer" : 0, "byteOffset" : 49168, "byteLength" : 1152, "byteStride" : 24, "target" : 34962}, {"buffer" : 0, "byteOffset" : 50324, "byteLength" : 1152, "byteStride" : 24, "target" : 34962}, {"buffer" : 0, "byteOffset" : 51480, "byteLength" : 1440, "byteStride" : 24, "target" : 34962}, {"buffer" : 0, "byteOffset" : 52924, "byteLength" : 1152, "byteStride" : 24, "target" : 34962}, {"buffer" : 0, "byteOffset" : 54080, "byteLength" : 1152, "byteStride" : 24, "target" : 34962}, {"buffer" : 0, "byteOffset" : 55236, "byteLength" : 864, "byteStride" : 24, "target" : 34962}, {"buffer" : 0, "byteOffset" : 56104, "byteLength" : 1440, "byteStride" : 24, "target" : 34962}, {"buffer" : 0, "byteOffset" : 57548, "byteLength" : 1440, "byteStride" : 24, "target" : 34962}, {"buffer" : 0, "byteOffset" : 58992, "byteLength" : 864, "byteStride" : 24, "target" : 34962}, {"buffer" : 0, "byteOffset" : 59860, "byteLength" : 1440, "byteStride" : 24, "target" : 34962}, {"buffer" : 0, "byteOffset" : 61304, "byteLength" : 864, "byteStride" : 24, "target" : 34962}, {"buffer" : 0, "byteOffset" : 62172, "byteLength" : 864, "byteStride" : 24, "target" : 34962}, {"buffer" : 0, "byteOffset" : 63040, "byteLength" : 1152, "byteStride" : 24, "target" : 34962}, {"buffer" : 0, "byteOffset" : 64196, "byteLength" : 1152, "byteStride" : 24, "target" : 34962}, {"buffer" : 0, "byteOffset" : 65352, "byteLength" : 1152, "byteStride" : 24, "target" : 34962}, {"buffer" : 0, "byteOffset" : 66508, "byteLength" : 864, "byteStride" : 24, "target" : 34962}, {"buffer" : 0, "byteOffset" : 67376, "byteLength" : 864, "byteStride" : 24, "target" : 34962}, {"buffer" : 0, "byteOffset" : 68244, "byteLength" : 864, "byteStride" : 24, "target" : 34962}, {"buffer" : 0, "byteOffset" : 69112, "byteLength" : 864, "byteStride" : 24, "target" : 34962}], "cameras" : [{"perspective" : {"aspectRatio" : 0, "yfov" : 0.6108652381980153, "zfar" : 1000, "znear" : 1}, "type" : "perspective"}], "materials" : [{"pbrMetallicRoughness" : {"baseColorFactor" : [1, 0, 0.4980392, 1], "metallicFactor" : 0, "roughnessFactor" : 0}, "emissiveFactor" : [0, 0, 0], "alphaMode" : "OPAQUE", "doubleSided" : false}, {"pbrMetallicRoughness" : {"baseColorFactor" : [1, 0, 0.4980392, 1], "metallicFactor" : 0, "roughnessFactor" : 0}, "emissiveFactor" : [0, 0, 0], "alphaMode" : "OPAQUE", "doubleSided" : false}, {"pbrMetallicRoughness" : {"baseColorFactor" : [1, 0, 0.4980392, 1], "metallicFactor" : 0, "roughnessFactor" : 0}, "emissiveFactor" : [0, 0, 0], "alphaMode" : "OPAQUE", "doubleSided" : false}, {"pbrMetallicRoughness" : {"baseColorFactor" : [1, 0, 0.4980392, 1], "metallicFactor" : 0, "roughnessFactor" : 0}, "emissiveFactor" : [0, 0, 0], "alphaMode" : "OPAQUE", "doubleSided" : false}, {"pbrMetallicRoughness" : {"baseColorFactor" : [1, 0, 0.4980392, 1], "metallicFactor" : 0, "roughnessFactor" : 0}, "emissiveFactor" : [0, 0, 0], "alphaMode" : "OPAQUE", "doubleSided" : false}, {"pbrMetallicRoughness" : {"baseColorFactor" : [1, 0, 0.4980392, 1], "metallicFactor" : 0, "roughnessFactor" : 0}, "emissiveFactor" : [0, 0, 0], "alphaMode" : "OPAQUE", "doubleSided" : false}, {"pbrMetallicRoughness" : {"baseColorFactor" : [1, 0, 0.4980392, 1], "metallicFactor" : 0, "roughnessFactor" : 0}, "emissiveFactor" : [0, 0, 0], "alphaMode" : "OPAQUE", "doubleSided" : false}, {"pbrMetallicRoughness" : {"baseColorFactor" : [1, 0, 0.4980392, 1], "metallicFactor" : 0, "roughnessFactor" : 0}, "emissiveFactor" : [0, 0, 0], "alphaMode" : "OPAQUE", "doubleSided" : false}, {"pbrMetallicRoughness" : {"baseColorFactor" : [1, 0, 0.4980392, 1], "metallicFactor" : 0, "roughnessFactor" : 0}, "emissiveFactor" : [0, 0, 0], "alphaMode" : "OPAQUE", "doubleSided" : false}, {"pbrMetallicRoughness" : {"baseColorFactor" : [1, 0, 0.4980392, 1], "metallicFactor" : 0, "roughnessFactor" : 0}, "emissiveFactor" : [0, 0, 0], "alphaMode" : "OPAQUE", "doubleSided" : false}, {"pbrMetallicRoughness" : {"baseColorFactor" : [1, 0, 0.4980392, 1], "metallicFactor" : 0, "roughnessFactor" : 0}, "emissiveFactor" : [0, 0, 0], "alphaMode" : "OPAQUE", "doubleSided" : false}, {"pbrMetallicRoughness" : {"baseColorFactor" : [1, 0, 0.4980392, 1], "metallicFactor" : 0, "roughnessFactor" : 0}, "emissiveFactor" : [0, 0, 0], "alphaMode" : "OPAQUE", "doubleSided" : false}, {"pbrMetallicRoughness" : {"baseColorFactor" : [1, 0, 0.4980392, 1], "metallicFactor" : 0, "roughnessFactor" : 0}, "emissiveFactor" : [0, 0, 0], "alphaMode" : "OPAQUE", "doubleSided" : false}, {"pbrMetallicRoughness" : {"baseColorFactor" : [1, 0, 0.4980392, 1], "metallicFactor" : 0, "roughnessFactor" : 0}, "emissiveFactor" : [0, 0, 0], "alphaMode" : "OPAQUE", "doubleSided" : false}, {"pbrMetallicRoughness" : {"baseColorFactor" : [1, 0, 0.4980392, 1], "metallicFactor" : 0, "roughnessFactor" : 0}, "emissiveFactor" : [0, 0, 0], "alphaMode" : "OPAQUE", "doubleSided" : false}, {"pbrMetallicRoughness" : {"baseColorFactor" : [1, 0, 0.4980392, 1], "metallicFactor" : 0, "roughnessFactor" : 0}, "emissiveFactor" : [0, 0, 0], "alphaMode" : "OPAQUE", "doubleSided" : false}, {"pbrMetallicRoughness" : {"baseColorFactor" : [1, 0, 0.4980392, 1], "metallicFactor" : 0, "roughnessFactor" : 0}, "emissiveFactor" : [0, 0, 0], "alphaMode" : "OPAQUE", "doubleSided" : false}, {"pbrMetallicRoughness" : {"baseColorFactor" : [1, 0, 0.4980392, 1], "metallicFactor" : 0, "roughnessFactor" : 0}, "emissiveFactor" : [0, 0, 0], "alphaMode" : "OPAQUE", "doubleSided" : false}, {"pbrMetallicRoughness" : {"baseColorFactor" : [1, 0, 0.4980392, 1], "metallicFactor" : 0, "roughnessFactor" : 0}, "emissiveFactor" : [0, 0, 0], "alphaMode" : "OPAQUE", "doubleSided" : false}, {"pbrMetallicRoughness" : {"baseColorFactor" : [1, 0, 0.4980392, 1], "metallicFactor" : 0, "roughnessFactor" : 0}, "emissiveFactor" : [0, 0, 0], "alphaMode" : "OPAQUE", "doubleSided" : false}, {"pbrMetallicRoughness" : {"baseColorFactor" : [1, 0, 0.4980392, 1], "metallicFactor" : 0, "roughnessFactor" : 0}, "emissiveFactor" : [0, 0, 0], "alphaMode" : "OPAQUE", "doubleSided" : false}, {"pbrMetallicRoughness" : {"baseColorFactor" : [1, 0, 0.4980392, 1], "metallicFactor" : 0, "roughnessFactor" : 0}, "emissiveFactor" : [0, 0, 0], "alphaMode" : "OPAQUE", "doubleSided" : false}], "meshes" : [{"primitives" : [{"attributes" : {"POSITION" : 1, "NORMAL" : 2}, "indices" : 0, "material" : 0, "mode" : 4}, {"attributes" : {"POSITION" : 4, "NORMAL" : 5}, "indices" : 3, "material" : 1, "mode" : 4}, {"attributes" : {"POSITION" : 7, "NORMAL" : 8}, "indices" : 6, "material" : 2, "mode" : 4}, {"attributes" : {"POSITION" : 10, "NORMAL" : 11}, "indices" : 9, "material" : 3, "mode" : 4}, {"attributes" : {"POSITION" : 13, "NORMAL" : 14}, "indices" : 12, "material" : 4, "mode" : 4}, {"attributes" : {"POSITION" : 16, "NORMAL" : 17}, "indices" : 15, "material" : 5, "mode" : 4}, {"attributes" : {"POSITION" : 19, "NORMAL" : 20}, "indices" : 18, "material" : 6, "mode" : 4}, {"attributes" : {"POSITION" : 22, "NORMAL" : 23}, "indices" : 21, "material" : 7, "mode" : 4}, {"attributes" : {"POSITION" : 25, "NORMAL" : 26}, "indices" : 24, "material" : 8, "mode" : 4}, {"attributes" : {"POSITION" : 28, "NORMAL" : 29}, "indices" : 27, "material" : 9, "mode" : 4}, {"attributes" : {"POSITION" : 31, "NORMAL" : 32}, "indices" : 30, "material" : 10, "mode" : 4}, {"attributes" : {"POSITION" : 34, "NORMAL" : 35}, "indices" : 33, "material" : 11, "mode" : 4}, {"attributes" : {"POSITION" : 37, "NORMAL" : 38}, "indices" : 36, "material" : 12, "mode" : 4}, {"attributes" : {"POSITION" : 40, "NORMAL" : 41}, "indices" : 39, "material" : 13, "mode" : 4}, {"attributes" : {"POSITION" : 43, "NORMAL" : 44}, "indices" : 42, "material" : 14, "mode" : 4}, {"attributes" : {"POSITION" : 46, "NORMAL" : 47}, "indices" : 45, "material" : 15, "mode" : 4}, {"attributes" : {"POSITION" : 49, "NORMAL" : 50}, "indices" : 48, "material" : 16, "mode" : 4}, {"attributes" : {"POSITION" : 52, "NORMAL" : 53}, "indices" : 51, "material" : 17, "mode" : 4}, {"attributes" : {"POSITION" : 55, "NORMAL" : 56}, "indices" : 54, "material" : 18, "mode" : 4}, {"attributes" : {"POSITION" : 58, "NORMAL" : 59}, "indices" : 57, "material" : 19, "mode" : 4}, {"attributes" : {"POSITION" : 61, "NORMAL" : 62}, "indices" : 60, "material" : 20, "mode" : 4}, {"attributes" : {"POSITION" : 64, "NORMAL" : 65}, "indices" : 63, "material" : 21, "mode" : 4}]}], "nodes" : [{"camera" : 0, "matrix" : [0.873849, 0.4861975, -5.551115E-17, 0, -0.1144631, 0.205726, 0.9718925, 0, 0.4725317, -0.8492873, 0.2354251, 0, 247.5828, -237.8325, 98.10397, 1], "name" : "skp_camera_Last_Saved_SketchUp_View"}, {"children" : [0], "mesh" : 0, "name" : "SketchUp"}], "scene" : 0, "scenes" : [{"nodes" : [1]}]}